<svg xmlns="http://www.w3.org/2000/svg" viewBox="0 0 256 64" role="img" aria-label="Encouracado">
  <defs>
    <linearGradient id="hull" x1="0" x2="1">
      <stop offset="0" stop-color="#1e2d38"/>
      <stop offset=".5" stop-color="#657987"/>
      <stop offset="1" stop-color="#1b2934"/>
    </linearGradient>
    <filter id="shadow" x="-5%" y="-30%" width="110%" height="160%">
      <feDropShadow dx="0" dy="4" stdDeviation="3" flood-color="#062532" flood-opacity=".34"/>
    </filter>
  </defs>
  <path d="M14 32 38 13h177l27 19-27 19H38z" fill="url(#hull)" filter="url(#shadow)"/>
  <path d="M40 18h170l18 14-18 14H40L24 32z" fill="#2d424e"/>
  <rect x="99" y="21" width="43" height="22" rx="5" fill="#87999f"/>
  <rect x="114" y="15" width="17" height="12" rx="3" fill="#c6d0d1"/>
  <g stroke="#cfd8d9" stroke-linecap="round" stroke-width="4">
    <path d="M68 26H43"/>
    <path d="M69 38H44"/>
    <path d="M184 26h25"/>
    <path d="M184 38h25"/>
  </g>
  <g fill="#aebbbe">
    <circle cx="75" cy="26" r="8"/>
    <circle cx="75" cy="38" r="8"/>
    <circle cx="176" cy="26" r="8"/>
    <circle cx="176" cy="38" r="8"/>
  </g>
  <path d="M121 15V8m-7 3 7-3 8 4" stroke="#d7dddd" stroke-width="2" stroke-linecap="round"/>
</svg>
