<svg xmlns="http://www.w3.org/2000/svg" viewBox="0 0 320 64" role="img" aria-label="Porta-avioes">
  <defs>
    <linearGradient id="hull" x1="0" x2="1">
      <stop offset="0" stop-color="#253746"/>
      <stop offset="0.52" stop-color="#6f8491"/>
      <stop offset="1" stop-color="#1f303d"/>
    </linearGradient>
    <linearGradient id="deck" x1="0" x2="0" y1="0" y2="1">
      <stop offset="0" stop-color="#4b5d68"/>
      <stop offset="1" stop-color="#202f38"/>
    </linearGradient>
    <filter id="shadow" x="-5%" y="-30%" width="110%" height="160%">
      <feDropShadow dx="0" dy="4" stdDeviation="3" flood-color="#062532" flood-opacity=".35"/>
    </filter>
  </defs>
  <path d="M18 32 44 12h226l32 20-32 20H44z" fill="url(#hull)" filter="url(#shadow)"/>
  <path d="M46 17h220l22 15-22 15H46L26 32z" fill="url(#deck)"/>
  <path d="M67 20h155l42 24H108z" fill="#263640" opacity=".78"/>
  <path d="M90 22h128" stroke="#c9d1d5" stroke-width="3" stroke-linecap="round" opacity=".7"/>
  <path d="M69 43h190" stroke="#c9d1d5" stroke-width="2" stroke-linecap="round" opacity=".55"/>
  <rect x="229" y="20" width="25" height="20" rx="4" fill="#9cabac"/>
  <rect x="236" y="15" width="9" height="11" rx="2" fill="#d6dcda"/>
  <path d="M242 15v-7m-7 3 7-3 8 4" stroke="#d6dcda" stroke-width="2" stroke-linecap="round"/>
  <g fill="#d9e4e5" opacity=".9">
    <path d="M102 30h18l8 4h-26z"/>
    <path d="M144 27h16l7 4h-23z"/>
    <path d="M181 36h16l7 4h-23z"/>
  </g>
</svg>
