<svg xmlns="http://www.w3.org/2000/svg" viewBox="0 0 192 64" role="img" aria-label="Submarino">
  <defs>
    <linearGradient id="body" x1="0" x2="1">
      <stop offset="0" stop-color="#182631"/>
      <stop offset=".48" stop-color="#566c76"/>
      <stop offset="1" stop-color="#14212a"/>
    </linearGradient>
    <filter id="shadow" x="-7%" y="-35%" width="114%" height="170%">
      <feDropShadow dx="0" dy="4" stdDeviation="3" flood-color="#062532" flood-opacity=".35"/>
    </filter>
  </defs>
  <path d="M14 32c18-17 45-23 82-23s64 6 82 23c-18 17-45 23-82 23S32 49 14 32z" fill="url(#body)" filter="url(#shadow)"/>
  <path d="M36 32c15-9 36-13 61-13 24 0 45 4 59 13-14 9-35 13-59 13-25 0-46-4-61-13z" fill="#2b404a"/>
  <rect x="82" y="16" width="27" height="15" rx="6" fill="#91a0a3"/>
  <path d="M96 17V8m0 0h12" stroke="#d3dbdc" stroke-width="3" stroke-linecap="round"/>
  <circle cx="60" cy="32" r="4" fill="#c8d7d7"/>
  <circle cx="132" cy="32" r="4" fill="#c8d7d7"/>
</svg>
